<svg t="1739078531257" class="icon" viewBox="0 0 1024 1024" version="1.1" xmlns="http://www.w3.org/2000/svg" p-id="2144" width="200" height="200"><path d="M512.006827 0a495.28832 495.28832 0 0 0-494.933334 494.933333v477.866667a52.497067 52.497067 0 0 0 51.2 51.2h68.266667a52.497067 52.497067 0 0 0 51.2-51.2v-34.133333a16.124587 16.124587 0 0 1 17.066667-17.066667h68.266666a16.124587 16.124587 0 0 1 17.066667 17.066667v34.133333a52.497067 52.497067 0 0 0 51.2 51.2h68.266667a52.497067 52.497067 0 0 0 51.2-51.2v-34.133333a16.124587 16.124587 0 0 1 17.066666-17.066667h68.266667a16.124587 16.124587 0 0 1 17.066667 17.066667v34.133333a52.497067 52.497067 0 0 0 51.2 51.2h68.266666a52.497067 52.497067 0 0 0 51.2-51.2v-34.133333a16.124587 16.124587 0 0 1 17.066667-17.066667h68.266667a16.124587 16.124587 0 0 1 17.066666 17.066667v34.133333a52.497067 52.497067 0 0 0 51.2 51.2h68.266667a52.497067 52.497067 0 0 0 51.2-51.2v-477.866667A495.28832 495.28832 0 0 0 512.006827 0z m-119.466667 395.946667a22.678187 22.678187 0 0 1-13.653333 17.066666 69.748053 69.748053 0 0 0-54.613334 68.266667 68.901547 68.901547 0 0 0 54.613334 64.853333 18.71872 18.71872 0 0 1 13.653333 20.48 102.912 102.912 0 0 1-102.4 81.92 100.570453 100.570453 0 0 1-102.4-102.4V341.333333a102.4 102.4 0 1 1 204.8 0v54.613334z m409.6 0a22.678187 22.678187 0 0 1-13.653333 17.066666 69.748053 69.748053 0 0 0-54.613334 68.266667 68.901547 68.901547 0 0 0 54.613334 64.853333 18.71872 18.71872 0 0 1 13.653333 20.48 102.912 102.912 0 0 1-102.4 81.92 100.570453 100.570453 0 0 1-102.4-102.4V341.333333a102.4 102.4 0 0 1 204.8 0v54.613334z" opacity=".998" p-id="2145" fill="#f01e7f"></path></svg>